<?xml version="1.0" encoding="UTF-8" standalone="no"?>
<!DOCTYPE svg PUBLIC "-//W3C//DTD SVG 1.1//EN"
 "http://www.w3.org/Graphics/SVG/1.1/DTD/svg11.dtd">
<!-- Generated by graphviz version 15.0.0 (20260523.1842)
 -->
<!-- Pages: 1 -->
<svg width="688pt" height="888pt"
 viewBox="0.00 0.00 688.00 888.00" xmlns="http://www.w3.org/2000/svg" xmlns:xlink="http://www.w3.org/1999/xlink">
<g id="graph0" class="graph" transform="scale(1 1) rotate(0) translate(36 852)">
<polygon fill="white" stroke="none" points="-36,36 -36,-852 651.75,-852 651.75,36 -36,36"/>
<!-- n35 -->
<g id="node1" class="node">
<title>n35</title>
<path fill="#fafafa" stroke="black" stroke-width="2" d="M603.75,-816C603.75,-816 503.55,-816 503.55,-816 497.55,-816 491.55,-810 491.55,-804 491.55,-804 491.55,-792 491.55,-792 491.55,-786 497.55,-780 503.55,-780 503.55,-780 603.75,-780 603.75,-780 609.75,-780 615.75,-786 615.75,-792 615.75,-792 615.75,-804 615.75,-804 615.75,-810 609.75,-816 603.75,-816"/>
<text xml:space="preserve" text-anchor="middle" x="553.65" y="-794.12" font-family="Fira Mono" font-size="10.00">./deploy.sh staging</text>
</g>
<!-- n34 -->
<g id="node2" class="node">
<title>n34</title>
<path fill="#fafafa" stroke="black" stroke-width="2" d="M440.18,-816C440.18,-816 407.48,-816 407.48,-816 401.48,-816 395.48,-810 395.48,-804 395.48,-804 395.48,-792 395.48,-792 395.48,-786 401.48,-780 407.48,-780 407.48,-780 440.18,-780 440.18,-780 446.18,-780 452.18,-786 452.18,-792 452.18,-792 452.18,-804 452.18,-804 452.18,-810 446.18,-816 440.18,-816"/>
<text xml:space="preserve" text-anchor="middle" x="423.83" y="-794.12" font-family="Fira Mono" font-size="10.00">run</text>
</g>
<!-- n34&#45;&gt;n35 -->
<g id="edge1" class="edge">
<title>n34&#45;&gt;n35</title>
<path fill="none" stroke="black" stroke-width="2" d="M452.88,-798C464.05,-798 477.38,-798 490.6,-798"/>
</g>
<!-- n33 -->
<g id="node3" class="node">
<title>n33</title>
<path fill="#fafafa" stroke="black" stroke-width="2" d="M601.5,-751C601.5,-751 505.8,-751 505.8,-751 499.8,-751 493.8,-745 493.8,-739 493.8,-739 493.8,-727 493.8,-727 493.8,-721 499.8,-715 505.8,-715 505.8,-715 601.5,-715 601.5,-715 607.5,-715 613.5,-721 613.5,-727 613.5,-727 613.5,-739 613.5,-739 613.5,-745 607.5,-751 601.5,-751"/>
<text xml:space="preserve" text-anchor="middle" x="553.65" y="-729.12" font-family="Fira Mono" font-size="10.00">Deploy to staging</text>
</g>
<!-- n32 -->
<g id="node4" class="node">
<title>n32</title>
<path fill="#fafafa" stroke="black" stroke-width="2" d="M445.43,-751C445.43,-751 402.23,-751 402.23,-751 396.23,-751 390.23,-745 390.23,-739 390.23,-739 390.23,-727 390.23,-727 390.23,-721 396.23,-715 402.23,-715 402.23,-715 445.43,-715 445.43,-715 451.43,-715 457.43,-721 457.43,-727 457.43,-727 457.43,-739 457.43,-739 457.43,-745 451.43,-751 445.43,-751"/>
<text xml:space="preserve" text-anchor="middle" x="423.83" y="-729.12" font-family="Fira Mono" font-size="10.00">name</text>
</g>
<!-- n32&#45;&gt;n33 -->
<g id="edge2" class="edge">
<title>n32&#45;&gt;n33</title>
<path fill="none" stroke="black" stroke-width="2" d="M458.41,-733C469.06,-733 481.18,-733 493.09,-733"/>
</g>
<!-- n31 -->
<g id="node5" class="node">
<title>n31</title>
<path fill="#fafafa" stroke="black" stroke-width="2" d="M315.6,-751C315.6,-751 272.4,-751 272.4,-751 266.4,-751 260.4,-745 260.4,-739 260.4,-739 260.4,-727 260.4,-727 260.4,-721 266.4,-715 272.4,-715 272.4,-715 315.6,-715 315.6,-715 321.6,-715 327.6,-721 327.6,-727 327.6,-727 327.6,-739 327.6,-739 327.6,-745 321.6,-751 315.6,-751"/>
<text xml:space="preserve" text-anchor="middle" x="294" y="-729.12" font-family="Fira Mono" font-size="10.00">steps</text>
</g>
<!-- n31&#45;&gt;n34 -->
<g id="edge4" class="edge">
<title>n31&#45;&gt;n34</title>
<path fill="none" stroke="black" stroke-width="2" d="M328.58,-750.08C349.15,-760.53 375.16,-773.76 394.65,-783.67"/>
</g>
<!-- n31&#45;&gt;n32 -->
<g id="edge3" class="edge">
<title>n31&#45;&gt;n32</title>
<path fill="none" stroke="black" stroke-width="2" d="M328.58,-733C347.37,-733 370.71,-733 389.46,-733"/>
</g>
<!-- n30 -->
<g id="node6" class="node">
<title>n30</title>
<path fill="#fafafa" stroke="black" stroke-width="2" d="M441.68,-686C441.68,-686 405.98,-686 405.98,-686 399.98,-686 393.98,-680 393.98,-674 393.98,-674 393.98,-662 393.98,-662 393.98,-656 399.98,-650 405.98,-650 405.98,-650 441.68,-650 441.68,-650 447.68,-650 453.68,-656 453.68,-662 453.68,-662 453.68,-674 453.68,-674 453.68,-680 447.68,-686 441.68,-686"/>
<text xml:space="preserve" text-anchor="middle" x="423.83" y="-664.12" font-family="Fira Mono" font-size="10.00">test</text>
</g>
<!-- n29 -->
<g id="node7" class="node">
<title>n29</title>
<path fill="#fafafa" stroke="black" stroke-width="2" d="M316.73,-686C316.73,-686 271.27,-686 271.27,-686 265.27,-686 259.27,-680 259.27,-674 259.27,-674 259.27,-662 259.27,-662 259.27,-656 265.27,-650 271.27,-650 271.27,-650 316.73,-650 316.73,-650 322.73,-650 328.73,-656 328.73,-662 328.73,-662 328.73,-674 328.73,-674 328.73,-680 322.73,-686 316.73,-686"/>
<text xml:space="preserve" text-anchor="middle" x="294" y="-664.12" font-family="Fira Mono" font-size="10.00">needs</text>
</g>
<!-- n29&#45;&gt;n30 -->
<g id="edge5" class="edge">
<title>n29&#45;&gt;n30</title>
<path fill="none" stroke="black" stroke-width="2" d="M329.59,-668C349.41,-668 374.02,-668 392.98,-668"/>
</g>
<!-- n28 -->
<g id="node8" class="node">
<title>n28</title>
<path fill="#fafafa" stroke="black" stroke-width="2" d="M461.55,-621C461.55,-621 386.1,-621 386.1,-621 380.1,-621 374.1,-615 374.1,-609 374.1,-609 374.1,-597 374.1,-597 374.1,-591 380.1,-585 386.1,-585 386.1,-585 461.55,-585 461.55,-585 467.55,-585 473.55,-591 473.55,-597 473.55,-597 473.55,-609 473.55,-609 473.55,-615 467.55,-621 461.55,-621"/>
<text xml:space="preserve" text-anchor="middle" x="423.83" y="-599.12" font-family="Fira Mono" font-size="10.00">ubuntu&#45;latest</text>
</g>
<!-- n27 -->
<g id="node9" class="node">
<title>n27</title>
<path fill="#fafafa" stroke="black" stroke-width="2" d="M319.73,-621C319.73,-621 268.27,-621 268.27,-621 262.27,-621 256.27,-615 256.27,-609 256.27,-609 256.27,-597 256.27,-597 256.27,-591 262.27,-585 268.27,-585 268.27,-585 319.73,-585 319.73,-585 325.73,-585 331.73,-591 331.73,-597 331.73,-597 331.73,-609 331.73,-609 331.73,-615 325.73,-621 319.73,-621"/>
<text xml:space="preserve" text-anchor="middle" x="294" y="-599.12" font-family="Fira Mono" font-size="10.00">runs&#45;on</text>
</g>
<!-- n27&#45;&gt;n28 -->
<g id="edge6" class="edge">
<title>n27&#45;&gt;n28</title>
<path fill="none" stroke="black" stroke-width="2" d="M332.66,-603C345.33,-603 359.66,-603 373.11,-603"/>
</g>
<!-- n26 -->
<g id="node10" class="node">
<title>n26</title>
<path fill="#fafafa" stroke="black" stroke-width="2" d="M188.03,-653C188.03,-653 140.33,-653 140.33,-653 134.33,-653 128.33,-647 128.33,-641 128.33,-641 128.33,-629 128.33,-629 128.33,-623 134.33,-617 140.33,-617 140.33,-617 188.03,-617 188.03,-617 194.03,-617 200.03,-623 200.03,-629 200.03,-629 200.03,-641 200.03,-641 200.03,-647 194.03,-653 188.03,-653"/>
<text xml:space="preserve" text-anchor="middle" x="164.18" y="-631.12" font-family="Fira Mono" font-size="10.00">deploy</text>
</g>
<!-- n26&#45;&gt;n31 -->
<g id="edge9" class="edge">
<title>n26&#45;&gt;n31</title>
<path fill="none" stroke="black" stroke-width="2" d="M191.2,-653.68C197.56,-658.31 204.32,-663.3 210.52,-668 230.73,-683.3 253.3,-701.15 269.72,-714.27"/>
</g>
<!-- n26&#45;&gt;n29 -->
<g id="edge8" class="edge">
<title>n26&#45;&gt;n29</title>
<path fill="none" stroke="black" stroke-width="2" d="M200.78,-644.19C218.81,-648.85 240.59,-654.47 258.47,-659.08"/>
</g>
<!-- n26&#45;&gt;n27 -->
<g id="edge7" class="edge">
<title>n26&#45;&gt;n27</title>
<path fill="none" stroke="black" stroke-width="2" d="M200.78,-626.09C217.77,-621.83 238.11,-616.74 255.35,-612.42"/>
</g>
<!-- n25 -->
<g id="node11" class="node">
<title>n25</title>
<path fill="#fafafa" stroke="black" stroke-width="2" d="M581.62,-556C581.62,-556 525.67,-556 525.67,-556 519.67,-556 513.67,-550 513.67,-544 513.67,-544 513.67,-532 513.67,-532 513.67,-526 519.67,-520 525.67,-520 525.67,-520 581.62,-520 581.62,-520 587.62,-520 593.62,-526 593.62,-532 593.62,-532 593.62,-544 593.62,-544 593.62,-550 587.62,-556 581.62,-556"/>
<text xml:space="preserve" text-anchor="middle" x="553.65" y="-534.12" font-family="Fira Mono" font-size="10.00">codecov</text>
</g>
<!-- n24 -->
<g id="node12" class="node">
<title>n24</title>
<path fill="#fafafa" stroke="black" stroke-width="2" d="M440.18,-556C440.18,-556 407.48,-556 407.48,-556 401.48,-556 395.48,-550 395.48,-544 395.48,-544 395.48,-532 395.48,-532 395.48,-526 401.48,-520 407.48,-520 407.48,-520 440.18,-520 440.18,-520 446.18,-520 452.18,-526 452.18,-532 452.18,-532 452.18,-544 452.18,-544 452.18,-550 446.18,-556 440.18,-556"/>
<text xml:space="preserve" text-anchor="middle" x="423.83" y="-534.12" font-family="Fira Mono" font-size="10.00">run</text>
</g>
<!-- n24&#45;&gt;n25 -->
<g id="edge10" class="edge">
<title>n24&#45;&gt;n25</title>
<path fill="none" stroke="black" stroke-width="2" d="M452.88,-538C470.51,-538 493.54,-538 513.03,-538"/>
</g>
<!-- n23 -->
<g id="node13" class="node">
<title>n23</title>
<path fill="#fafafa" stroke="black" stroke-width="2" d="M600,-491C600,-491 507.3,-491 507.3,-491 501.3,-491 495.3,-485 495.3,-479 495.3,-479 495.3,-467 495.3,-467 495.3,-461 501.3,-455 507.3,-455 507.3,-455 600,-455 600,-455 606,-455 612,-461 612,-467 612,-467 612,-479 612,-479 612,-485 606,-491 600,-491"/>
<text xml:space="preserve" text-anchor="middle" x="553.65" y="-469.12" font-family="Fira Mono" font-size="10.00">Upload coverage</text>
</g>
<!-- n22 -->
<g id="node14" class="node">
<title>n22</title>
<path fill="#fafafa" stroke="black" stroke-width="2" d="M445.43,-491C445.43,-491 402.23,-491 402.23,-491 396.23,-491 390.23,-485 390.23,-479 390.23,-479 390.23,-467 390.23,-467 390.23,-461 396.23,-455 402.23,-455 402.23,-455 445.43,-455 445.43,-455 451.43,-455 457.43,-461 457.43,-467 457.43,-467 457.43,-479 457.43,-479 457.43,-485 451.43,-491 445.43,-491"/>
<text xml:space="preserve" text-anchor="middle" x="423.83" y="-469.12" font-family="Fira Mono" font-size="10.00">name</text>
</g>
<!-- n22&#45;&gt;n23 -->
<g id="edge11" class="edge">
<title>n22&#45;&gt;n23</title>
<path fill="none" stroke="black" stroke-width="2" d="M458.41,-473C469.5,-473 482.19,-473 494.58,-473"/>
</g>
<!-- n21 -->
<g id="node15" class="node">
<title>n21</title>
<path fill="#fafafa" stroke="black" stroke-width="2" d="M576.75,-426C576.75,-426 530.55,-426 530.55,-426 524.55,-426 518.55,-420 518.55,-414 518.55,-414 518.55,-402 518.55,-402 518.55,-396 524.55,-390 530.55,-390 530.55,-390 576.75,-390 576.75,-390 582.75,-390 588.75,-396 588.75,-402 588.75,-402 588.75,-414 588.75,-414 588.75,-420 582.75,-426 576.75,-426"/>
<text xml:space="preserve" text-anchor="middle" x="553.65" y="-404.12" font-family="Fira Mono" font-size="10.00">pytest</text>
</g>
<!-- n20 -->
<g id="node16" class="node">
<title>n20</title>
<path fill="#fafafa" stroke="black" stroke-width="2" d="M440.18,-426C440.18,-426 407.48,-426 407.48,-426 401.48,-426 395.48,-420 395.48,-414 395.48,-414 395.48,-402 395.48,-402 395.48,-396 401.48,-390 407.48,-390 407.48,-390 440.18,-390 440.18,-390 446.18,-390 452.18,-396 452.18,-402 452.18,-402 452.18,-414 452.18,-414 452.18,-420 446.18,-426 440.18,-426"/>
<text xml:space="preserve" text-anchor="middle" x="423.83" y="-404.12" font-family="Fira Mono" font-size="10.00">run</text>
</g>
<!-- n20&#45;&gt;n21 -->
<g id="edge12" class="edge">
<title>n20&#45;&gt;n21</title>
<path fill="none" stroke="black" stroke-width="2" d="M452.88,-408C471.98,-408 497.41,-408 517.82,-408"/>
</g>
<!-- n19 -->
<g id="node17" class="node">
<title>n19</title>
<path fill="#fafafa" stroke="black" stroke-width="2" d="M584.62,-361C584.62,-361 522.67,-361 522.67,-361 516.67,-361 510.67,-355 510.67,-349 510.67,-349 510.67,-337 510.67,-337 510.67,-331 516.67,-325 522.67,-325 522.67,-325 584.62,-325 584.62,-325 590.62,-325 596.62,-331 596.62,-337 596.62,-337 596.62,-349 596.62,-349 596.62,-355 590.62,-361 584.62,-361"/>
<text xml:space="preserve" text-anchor="middle" x="553.65" y="-339.12" font-family="Fira Mono" font-size="10.00">Run tests</text>
</g>
<!-- n18 -->
<g id="node18" class="node">
<title>n18</title>
<path fill="#fafafa" stroke="black" stroke-width="2" d="M445.43,-361C445.43,-361 402.23,-361 402.23,-361 396.23,-361 390.23,-355 390.23,-349 390.23,-349 390.23,-337 390.23,-337 390.23,-331 396.23,-325 402.23,-325 402.23,-325 445.43,-325 445.43,-325 451.43,-325 457.43,-331 457.43,-337 457.43,-337 457.43,-349 457.43,-349 457.43,-355 451.43,-361 445.43,-361"/>
<text xml:space="preserve" text-anchor="middle" x="423.83" y="-339.12" font-family="Fira Mono" font-size="10.00">name</text>
</g>
<!-- n18&#45;&gt;n19 -->
<g id="edge13" class="edge">
<title>n18&#45;&gt;n19</title>
<path fill="none" stroke="black" stroke-width="2" d="M458.41,-343C474.24,-343 493.3,-343 510.12,-343"/>
</g>
<!-- n17 -->
<g id="node19" class="node">
<title>n17</title>
<path fill="#fafafa" stroke="black" stroke-width="2" d="M315.6,-426C315.6,-426 272.4,-426 272.4,-426 266.4,-426 260.4,-420 260.4,-414 260.4,-414 260.4,-402 260.4,-402 260.4,-396 266.4,-390 272.4,-390 272.4,-390 315.6,-390 315.6,-390 321.6,-390 327.6,-396 327.6,-402 327.6,-402 327.6,-414 327.6,-414 327.6,-420 321.6,-426 315.6,-426"/>
<text xml:space="preserve" text-anchor="middle" x="294" y="-404.12" font-family="Fira Mono" font-size="10.00">steps</text>
</g>
<!-- n17&#45;&gt;n24 -->
<g id="edge17" class="edge">
<title>n17&#45;&gt;n24</title>
<path fill="none" stroke="black" stroke-width="2" d="M307.85,-426.88C322.43,-447.5 347.65,-480.8 374.1,-505 380.36,-510.72 387.68,-516.21 394.72,-521"/>
</g>
<!-- n17&#45;&gt;n22 -->
<g id="edge16" class="edge">
<title>n17&#45;&gt;n22</title>
<path fill="none" stroke="black" stroke-width="2" d="M328.58,-425.08C347.37,-434.63 370.71,-446.5 389.46,-456.04"/>
</g>
<!-- n17&#45;&gt;n20 -->
<g id="edge15" class="edge">
<title>n17&#45;&gt;n20</title>
<path fill="none" stroke="black" stroke-width="2" d="M328.58,-408C349.15,-408 375.16,-408 394.65,-408"/>
</g>
<!-- n17&#45;&gt;n18 -->
<g id="edge14" class="edge">
<title>n17&#45;&gt;n18</title>
<path fill="none" stroke="black" stroke-width="2" d="M328.58,-390.92C347.37,-381.37 370.71,-369.5 389.46,-359.96"/>
</g>
<!-- n16 -->
<g id="node20" class="node">
<title>n16</title>
<path fill="#fafafa" stroke="black" stroke-width="2" d="M439.8,-296C439.8,-296 407.85,-296 407.85,-296 401.85,-296 395.85,-290 395.85,-284 395.85,-284 395.85,-272 395.85,-272 395.85,-266 401.85,-260 407.85,-260 407.85,-260 439.8,-260 439.8,-260 445.8,-260 451.8,-266 451.8,-272 451.8,-272 451.8,-284 451.8,-284 451.8,-290 445.8,-296 439.8,-296"/>
<text xml:space="preserve" text-anchor="middle" x="423.83" y="-274.12" font-family="Fira Mono" font-size="10.00">lint</text>
</g>
<!-- n15 -->
<g id="node21" class="node">
<title>n15</title>
<path fill="#fafafa" stroke="black" stroke-width="2" d="M316.73,-296C316.73,-296 271.27,-296 271.27,-296 265.27,-296 259.27,-290 259.27,-284 259.27,-284 259.27,-272 259.27,-272 259.27,-266 265.27,-260 271.27,-260 271.27,-260 316.73,-260 316.73,-260 322.73,-260 328.73,-266 328.73,-272 328.73,-272 328.73,-284 328.73,-284 328.73,-290 322.73,-296 316.73,-296"/>
<text xml:space="preserve" text-anchor="middle" x="294" y="-274.12" font-family="Fira Mono" font-size="10.00">needs</text>
</g>
<!-- n15&#45;&gt;n16 -->
<g id="edge18" class="edge">
<title>n15&#45;&gt;n16</title>
<path fill="none" stroke="black" stroke-width="2" d="M329.59,-278C350.15,-278 375.87,-278 395.08,-278"/>
</g>
<!-- n14 -->
<g id="node22" class="node">
<title>n14</title>
<path fill="#fafafa" stroke="black" stroke-width="2" d="M461.55,-231C461.55,-231 386.1,-231 386.1,-231 380.1,-231 374.1,-225 374.1,-219 374.1,-219 374.1,-207 374.1,-207 374.1,-201 380.1,-195 386.1,-195 386.1,-195 461.55,-195 461.55,-195 467.55,-195 473.55,-201 473.55,-207 473.55,-207 473.55,-219 473.55,-219 473.55,-225 467.55,-231 461.55,-231"/>
<text xml:space="preserve" text-anchor="middle" x="423.83" y="-209.12" font-family="Fira Mono" font-size="10.00">ubuntu&#45;latest</text>
</g>
<!-- n13 -->
<g id="node23" class="node">
<title>n13</title>
<path fill="#fafafa" stroke="black" stroke-width="2" d="M319.73,-231C319.73,-231 268.27,-231 268.27,-231 262.27,-231 256.27,-225 256.27,-219 256.27,-219 256.27,-207 256.27,-207 256.27,-201 262.27,-195 268.27,-195 268.27,-195 319.73,-195 319.73,-195 325.73,-195 331.73,-201 331.73,-207 331.73,-207 331.73,-219 331.73,-219 331.73,-225 325.73,-231 319.73,-231"/>
<text xml:space="preserve" text-anchor="middle" x="294" y="-209.12" font-family="Fira Mono" font-size="10.00">runs&#45;on</text>
</g>
<!-- n13&#45;&gt;n14 -->
<g id="edge19" class="edge">
<title>n13&#45;&gt;n14</title>
<path fill="none" stroke="black" stroke-width="2" d="M332.66,-213C345.33,-213 359.66,-213 373.11,-213"/>
</g>
<!-- n12 -->
<g id="node24" class="node">
<title>n12</title>
<path fill="#fafafa" stroke="black" stroke-width="2" d="M182.03,-296C182.03,-296 146.33,-296 146.33,-296 140.33,-296 134.33,-290 134.33,-284 134.33,-284 134.33,-272 134.33,-272 134.33,-266 140.33,-260 146.33,-260 146.33,-260 182.03,-260 182.03,-260 188.03,-260 194.03,-266 194.03,-272 194.03,-272 194.03,-284 194.03,-284 194.03,-290 188.03,-296 182.03,-296"/>
<text xml:space="preserve" text-anchor="middle" x="164.18" y="-274.12" font-family="Fira Mono" font-size="10.00">test</text>
</g>
<!-- n12&#45;&gt;n17 -->
<g id="edge22" class="edge">
<title>n12&#45;&gt;n17</title>
<path fill="none" stroke="black" stroke-width="2" d="M183.76,-296.9C208,-321.55 250.14,-364.42 274.39,-389.07"/>
</g>
<!-- n12&#45;&gt;n15 -->
<g id="edge21" class="edge">
<title>n12&#45;&gt;n15</title>
<path fill="none" stroke="black" stroke-width="2" d="M194.82,-278C213.85,-278 238.63,-278 258.54,-278"/>
</g>
<!-- n12&#45;&gt;n13 -->
<g id="edge20" class="edge">
<title>n12&#45;&gt;n13</title>
<path fill="none" stroke="black" stroke-width="2" d="M194.82,-262.92C212.96,-253.7 236.34,-241.81 255.73,-231.95"/>
</g>
<!-- n11 -->
<g id="node25" class="node">
<title>n11</title>
<path fill="#fafafa" stroke="black" stroke-width="2" d="M579.38,-166C579.38,-166 527.92,-166 527.92,-166 521.92,-166 515.92,-160 515.92,-154 515.92,-154 515.92,-142 515.92,-142 515.92,-136 521.92,-130 527.92,-130 527.92,-130 579.38,-130 579.38,-130 585.38,-130 591.38,-136 591.38,-142 591.38,-142 591.38,-154 591.38,-154 591.38,-160 585.38,-166 579.38,-166"/>
<text xml:space="preserve" text-anchor="middle" x="553.65" y="-144.12" font-family="Fira Mono" font-size="10.00">flake8 .</text>
</g>
<!-- n10 -->
<g id="node26" class="node">
<title>n10</title>
<path fill="#fafafa" stroke="black" stroke-width="2" d="M440.18,-166C440.18,-166 407.48,-166 407.48,-166 401.48,-166 395.48,-160 395.48,-154 395.48,-154 395.48,-142 395.48,-142 395.48,-136 401.48,-130 407.48,-130 407.48,-130 440.18,-130 440.18,-130 446.18,-130 452.18,-136 452.18,-142 452.18,-142 452.18,-154 452.18,-154 452.18,-160 446.18,-166 440.18,-166"/>
<text xml:space="preserve" text-anchor="middle" x="423.83" y="-144.12" font-family="Fira Mono" font-size="10.00">run</text>
</g>
<!-- n10&#45;&gt;n11 -->
<g id="edge23" class="edge">
<title>n10&#45;&gt;n11</title>
<path fill="none" stroke="black" stroke-width="2" d="M452.88,-148C471.1,-148 495.08,-148 514.96,-148"/>
</g>
<!-- n9 -->
<g id="node27" class="node">
<title>n9</title>
<path fill="#fafafa" stroke="black" stroke-width="2" d="M584.25,-101C584.25,-101 523.05,-101 523.05,-101 517.05,-101 511.05,-95 511.05,-89 511.05,-89 511.05,-77 511.05,-77 511.05,-71 517.05,-65 523.05,-65 523.05,-65 584.25,-65 584.25,-65 590.25,-65 596.25,-71 596.25,-77 596.25,-77 596.25,-89 596.25,-89 596.25,-95 590.25,-101 584.25,-101"/>
<text xml:space="preserve" text-anchor="middle" x="553.65" y="-79.12" font-family="Fira Mono" font-size="10.00">Run linter</text>
</g>
<!-- n8 -->
<g id="node28" class="node">
<title>n8</title>
<path fill="#fafafa" stroke="black" stroke-width="2" d="M445.43,-101C445.43,-101 402.23,-101 402.23,-101 396.23,-101 390.23,-95 390.23,-89 390.23,-89 390.23,-77 390.23,-77 390.23,-71 396.23,-65 402.23,-65 402.23,-65 445.43,-65 445.43,-65 451.43,-65 457.43,-71 457.43,-77 457.43,-77 457.43,-89 457.43,-89 457.43,-95 451.43,-101 445.43,-101"/>
<text xml:space="preserve" text-anchor="middle" x="423.83" y="-79.12" font-family="Fira Mono" font-size="10.00">name</text>
</g>
<!-- n8&#45;&gt;n9 -->
<g id="edge24" class="edge">
<title>n8&#45;&gt;n9</title>
<path fill="none" stroke="black" stroke-width="2" d="M458.41,-83C474.24,-83 493.3,-83 510.12,-83"/>
</g>
<!-- n7 -->
<g id="node29" class="node">
<title>n7</title>
<path fill="#fafafa" stroke="black" stroke-width="2" d="M315.6,-150C315.6,-150 272.4,-150 272.4,-150 266.4,-150 260.4,-144 260.4,-138 260.4,-138 260.4,-126 260.4,-126 260.4,-120 266.4,-114 272.4,-114 272.4,-114 315.6,-114 315.6,-114 321.6,-114 327.6,-120 327.6,-126 327.6,-126 327.6,-138 327.6,-138 327.6,-144 321.6,-150 315.6,-150"/>
<text xml:space="preserve" text-anchor="middle" x="294" y="-128.12" font-family="Fira Mono" font-size="10.00">steps</text>
</g>
<!-- n7&#45;&gt;n10 -->
<g id="edge26" class="edge">
<title>n7&#45;&gt;n10</title>
<path fill="none" stroke="black" stroke-width="2" d="M328.58,-136.2C349.15,-138.78 375.16,-142.03 394.65,-144.47"/>
</g>
<!-- n7&#45;&gt;n8 -->
<g id="edge25" class="edge">
<title>n7&#45;&gt;n8</title>
<path fill="none" stroke="black" stroke-width="2" d="M328.58,-119.13C347.37,-111.92 370.71,-102.98 389.46,-95.79"/>
</g>
<!-- n6 -->
<g id="node30" class="node">
<title>n6</title>
<path fill="#fafafa" stroke="black" stroke-width="2" d="M461.55,-36C461.55,-36 386.1,-36 386.1,-36 380.1,-36 374.1,-30 374.1,-24 374.1,-24 374.1,-12 374.1,-12 374.1,-6 380.1,0 386.1,0 386.1,0 461.55,0 461.55,0 467.55,0 473.55,-6 473.55,-12 473.55,-12 473.55,-24 473.55,-24 473.55,-30 467.55,-36 461.55,-36"/>
<text xml:space="preserve" text-anchor="middle" x="423.83" y="-14.12" font-family="Fira Mono" font-size="10.00">ubuntu&#45;latest</text>
</g>
<!-- n5 -->
<g id="node31" class="node">
<title>n5</title>
<path fill="#fafafa" stroke="black" stroke-width="2" d="M319.73,-68C319.73,-68 268.27,-68 268.27,-68 262.27,-68 256.27,-62 256.27,-56 256.27,-56 256.27,-44 256.27,-44 256.27,-38 262.27,-32 268.27,-32 268.27,-32 319.73,-32 319.73,-32 325.73,-32 331.73,-38 331.73,-44 331.73,-44 331.73,-56 331.73,-56 331.73,-62 325.73,-68 319.73,-68"/>
<text xml:space="preserve" text-anchor="middle" x="294" y="-46.12" font-family="Fira Mono" font-size="10.00">runs&#45;on</text>
</g>
<!-- n5&#45;&gt;n6 -->
<g id="edge27" class="edge">
<title>n5&#45;&gt;n6</title>
<path fill="none" stroke="black" stroke-width="2" d="M332.66,-40.57C345.33,-37.4 359.66,-33.81 373.11,-30.45"/>
</g>
<!-- n4 -->
<g id="node32" class="node">
<title>n4</title>
<path fill="#fafafa" stroke="black" stroke-width="2" d="M180.15,-150C180.15,-150 148.2,-150 148.2,-150 142.2,-150 136.2,-144 136.2,-138 136.2,-138 136.2,-126 136.2,-126 136.2,-120 142.2,-114 148.2,-114 148.2,-114 180.15,-114 180.15,-114 186.15,-114 192.15,-120 192.15,-126 192.15,-126 192.15,-138 192.15,-138 192.15,-144 186.15,-150 180.15,-150"/>
<text xml:space="preserve" text-anchor="middle" x="164.18" y="-128.12" font-family="Fira Mono" font-size="10.00">lint</text>
</g>
<!-- n4&#45;&gt;n7 -->
<g id="edge29" class="edge">
<title>n4&#45;&gt;n7</title>
<path fill="none" stroke="black" stroke-width="2" d="M192.91,-132C212.44,-132 238.69,-132 259.41,-132"/>
</g>
<!-- n4&#45;&gt;n5 -->
<g id="edge28" class="edge">
<title>n4&#45;&gt;n5</title>
<path fill="none" stroke="black" stroke-width="2" d="M192.91,-114.21C213.76,-100.83 242.28,-82.54 263.54,-68.9"/>
</g>
<!-- n3 -->
<g id="node33" class="node">
<title>n3</title>
<text xml:space="preserve" text-anchor="start" x="24.23" y="-275.12" font-family="Fira Mono" font-weight="bold" font-size="10.00">jobs</text>
</g>
<!-- n3&#45;&gt;n26 -->
<g id="edge32" class="edge">
<title>n3&#45;&gt;n26</title>
<path fill="none" stroke="black" stroke-width="2" d="M41.69,-295.7C63.35,-356.2 134.32,-554.4 156.49,-616.33"/>
</g>
<!-- n3&#45;&gt;n12 -->
<g id="edge31" class="edge">
<title>n3&#45;&gt;n12</title>
<path fill="none" stroke="black" stroke-width="2" d="M65.97,-278C86.5,-278 113.39,-278 133.69,-278"/>
</g>
<!-- n3&#45;&gt;n4 -->
<g id="edge30" class="edge">
<title>n3&#45;&gt;n4</title>
<path fill="none" stroke="black" stroke-width="2" d="M51.02,-260.1C75.29,-232.38 121.74,-179.33 146.56,-150.97"/>
</g>
<!-- n2 -->
<g id="node34" class="node">
<title>n2</title>
<path fill="#fafafa" stroke="black" stroke-width="2" d="M198.53,-718C198.53,-718 129.83,-718 129.83,-718 123.83,-718 117.83,-712 117.83,-706 117.83,-706 117.83,-694 117.83,-694 117.83,-688 123.83,-682 129.83,-682 129.83,-682 198.53,-682 198.53,-682 204.53,-682 210.53,-688 210.53,-694 210.53,-694 210.53,-706 210.53,-706 210.53,-712 204.53,-718 198.53,-718"/>
<text xml:space="preserve" text-anchor="middle" x="164.18" y="-696.12" font-family="Fira Mono" font-size="10.00">my&#45;pipeline</text>
</g>
<!-- n1 -->
<g id="node35" class="node">
<title>n1</title>
<text xml:space="preserve" text-anchor="start" x="21.6" y="-697.12" font-family="Fira Mono" font-weight="bold" font-size="10.00">name</text>
</g>
<!-- n1&#45;&gt;n2 -->
<g id="edge33" class="edge">
<title>n1&#45;&gt;n2</title>
<path fill="none" stroke="black" stroke-width="2" d="M68.6,-700C83.4,-700 101.06,-700 117.1,-700"/>
</g>
</g>
</svg>
